PathFileType	4	(X/Y/Z)	C:/Users/beibeiliu/ov580/test_trc/User3\sequence.15_training_dense_left.trc
DataRate	CameraRate	NumFrames	NumMarkers	Units	OrigDataRate	OrigDataStartFrame	OrigNumFrames
120	120	9	19	mm	120	30	234
Frame#	Time	ThumbCMC			ThumbMCP			ThumbIP			ThumbTip			IndexMCP			IndexPIP			IndexTip			MiddleMCP			MiddlePIP			MiddleTip			RingMCP			RingPIP			RingTip			PinkyMCP			PinkyPIP			PinkyTip			BackHand1			BackHand2			BackHand3	
		X0	Y0	Z0	X1	Y1	Z1	X2	Y2	Z2	X3	Y3	Z3	X4	Y4	Z4	X5	Y5	Z5	X6	Y6	Z6	X7	Y7	Z7	X8	Y8	Z8	X9	Y9	Z9	X10	Y10	Z10	X11	Y11	Z11	X12	Y12	Z12	X13	Y13	Z13	X14	Y14	Z14	X15	Y15	Z15	X16	Y16	Z16	X17	Y17	Z17	X18	Y18	Z18	
29	0.241667	-159.159	-23.851	20.942	-139.644	-28.9446	-4.14707	-121.322	-34.373	-28.9477	-123.274	-46.635	-53.5658	-166.187	-9.93394	-55.9089	-148.408	-31.0015	-75.9009	-139.435	-62.1528	-64.7261	-191.497	-4.95379	-65.5544	-180.558	-8.80228	-93.4747	-166.27	-22.3813	-122.565	-207.806	-15.5577	-60.2153	-204.836	-15.6334	-86.9192	-202.486	-22.7227	-112.151	-222.397	-32.7458	-47.996	-225.166	-33.8305	-73.4617	-222.71	-37.2054	-95.9407	-216.851	-15.0491	-5.44836	-222.491	-20.4731	20.9781	-192.072	-3.55071	11.8926	
30	0.25	-163.444	-19.4735	16.576	-136.937	-22.1582	-4.71551	-126.423	-30.821	-27.5541	-125.356	-42.2645	-52.9947	-162.257	-8.61564	-59.2235	-150.221	-29.1873	-75.3304	-139.211	-61.8717	-63.716	-193.715	-7.896	-63.924	-183.351	-11.3239	-94.6721	-169.853	-24.1163	-119.641	-210.055	-17.6172	-62.3894	-207.8	-20.5586	-89.3383	-196.925	-25.2428	-113.494	-223.825	-37.336	-50.5672	-224.788	-40.2239	-71.2686	-222.059	-42.7189	-98.8657	-223.852	-17.4751	-10.5436	-226.941	-22.9505	20.5759	-197.494	-3.17234	9.00458	
31	0.258333	-164.508	-14.0405	18.8578	-136.819	-16.1326	-3.09466	-126.062	-22.7186	-26.5661	-119.052	-34.5182	-51.2272	-167.085	-9.1797	-60.4631	-146.315	-26.2262	-73.8776	-132.416	-53.8893	-61.7685	-192.678	-8.70631	-68.9415	-181.504	-13.8123	-95.5604	-165.114	-24.4023	-121.968	-211.64	-24.9625	-60.9907	-206.459	-24.5246	-85.5099	-197.194	-31.1688	-113.411	-223.48	-44.8837	-47.6263	-223.623	-47.758	-73.4908	-219.866	-50.8033	-93.0589	-223.812	-20.414	-10.0703	-225.774	-24.5896	20.8979	-196.311	-1.265	7.21617	
32	0.266667	-165.991	-8.82459	16.7625	-140.761	-9.46331	-2.60279	-123.102	-14.9614	-27.1492	-121.108	-29.0874	-49.4862	-168.823	-5.50026	-57.0408	-146.458	-25.6365	-73.8596	-130.317	-49.6618	-60.833	-195.682	-14.0739	-67.073	-184.604	-16.9506	-95.5089	-164.487	-27.5867	-120.334	-208.919	-27.3078	-61.2897	-206.338	-30.8763	-86.3056	-195.58	-38.2819	-111.694	-220.193	-51.6946	-49.2598	-216.141	-52.485	-72.282	-212.137	-59.3304	-95.9904	-224.371	-25.2643	-12.5024	-226.005	-27.3643	19.5521	-203.572	-6.09433	5.74968	
33	0.275	-168.31	-1.1509	16.7863	-142.446	-1.45491	-5.03406	-124.788	-8.42373	-31.7861	-119.745	-22.271	-47.5304	-172.504	-10.1522	-59.9023	-146.948	-25.3087	-74.6751	-126.183	-43.7145	-58.1229	-193.797	-17.2828	-71.1218	-183.16	-21.758	-96.2764	-163.289	-30.2152	-119.161	-206.064	-33.6981	-64.5684	-202.036	-38.6878	-87.4453	-189.31	-47.1202	-113.822	-214.962	-57.897	-52.5526	-208.834	-60.8859	-72.3511	-207.446	-69.305	-93.126	-221.807	-27.8429	-14.0894	-227.126	-30.1403	13.3797	-207.908	-5.00289	1.4812	
34	0.283333	-175.411	2.01782	13.8186	-146.793	6.0854	-4.97356	-129.551	0.210777	-28.1334	-121.167	-15.5579	-47.7633	-173.937	-9.13948	-61.0029	-143.091	-23.864	-73.4144	-123.735	-35.4809	-59.4038	-193.752	-22.6671	-73.8217	-179.923	-28.7591	-99.3045	-155.991	-35.8903	-122.048	-204.423	-43.6224	-63.5518	-195.57	-45.1691	-90.2014	-181.402	-55.4352	-113.399	-206.416	-65.3944	-45.4974	-200.688	-69.6004	-71.469	-194.103	-75.2969	-91.9952	-220.836	-34.723	-15.117	-227.501	-36.4263	16.0991	-212.15	-9.4734	-1.68335	
35	0.291667	-182.188	6.85081	12.4473	-156.043	12.1516	-11.2524	-137.615	8.43139	-30.399	-123.966	-7.05139	-47.1639	-176.603	-10.3955	-64.7939	-142.394	-15.3092	-74.4753	-121.861	-22.7986	-59.2694	-193.511	-33.897	-74.7068	-176.54	-33.2809	-98.9402	-152.776	-36.5715	-120.413	-198.363	-52.6208	-62.8837	-188.513	-55.4892	-89.5111	-173.081	-60.9109	-108.686	-197.368	-72.0047	-48.0759	-189.072	-77.6667	-68.7002	-180.99	-86.2553	-84.6546	-219.537	-45.4067	-17.3872	-226.966	-44.6365	13.5151	-214.786	-14.5273	-2.09967	
36	0.3	-191.686	9.07164	7.98659	-166.66	16.4506	-14.4436	-146.343	16.42	-32.9617	-126.001	6.13963	-50.8379	-178.718	-17.996	-65.5079	-150.138	-16.8987	-76.9403	-123.275	-16.1404	-60.3928	-191.486	-39.1384	-71.8756	-175.923	-38.1581	-96.3605	-150.142	-43.604	-116.56	-191.719	-58.3775	-58.8231	-182.136	-61.7497	-82.8181	-161.94	-65.3118	-108.734	-185.623	-74.3081	-44.5043	-176.58	-80.2635	-62.9499	-164.616	-91.2816	-81.625	-214.129	-54.5083	-12.5995	-223.291	-50.6018	12.8037	-217.916	-20.8844	-4.72058	
37	0.308333	-198.433	6.36158	2.76039	-175.285	18.8146	-19.3691	-154.882	21.8423	-35.6537	-133.235	13.7604	-52.2686	-176.828	-20.709	-69.1598	-148.24	-13.957	-77.4449	-124.963	-4.05128	-60.5261	-187.464	-45.6106	-69.5765	-170.471	-44.9613	-95.6213	-144.896	-45.1164	-114.614	-185.543	-63.5071	-57.458	-174.087	-64.4473	-85.4039	-153.816	-71.538	-106.49	-178.187	-77.3059	-35.9453	-166.153	-84.7799	-56.5731	-156.146	-88.2283	-74.9958	-210.861	-54.1771	-11.2339	-219.512	-58.0143	15.0277	-220.672	-22.9802	-9.23011	
